<svg width="42" height="41" viewBox="0 0 42 41" fill="none" xmlns="http://www.w3.org/2000/svg">
<g clip-path="url(#clip0_83_6)" filter="url(#filter0_d_83_6)">
<rect width="34" height="33" transform="translate(4)" fill="url(#paint0_linear_83_6)"/>
<path d="M4 2.36363C4 1.05806 5.11775 0 6.49687 0H35.5031C36.8822 0 38 1.05806 38 2.36363V30.6364C38 31.9419 36.8822 33 35.5031 33H6.49687C5.11775 33 4 31.9419 4 30.6364V2.36363ZM14.5039 27.6251V12.7236H9.40175V27.6251H14.5039ZM11.9539 10.6879C13.7325 10.6879 14.8396 9.54525 14.8396 8.11388C14.8077 6.65156 13.7346 5.53988 11.9879 5.53988C10.2411 5.53988 9.1 6.65363 9.1 8.11388C9.1 9.54525 10.2071 10.6879 11.9199 10.6879H11.9539ZM22.3834 27.6251V19.3029C22.3834 18.8574 22.4174 18.4119 22.5534 18.0943C22.921 17.2054 23.7604 16.2834 25.1714 16.2834C27.018 16.2834 27.7554 17.6488 27.7554 19.6536V27.6251H32.8575V19.0781C32.8575 14.4994 30.3415 12.3709 26.984 12.3709C24.2767 12.3709 23.0634 13.8146 22.3834 14.8314V14.883H22.3494L22.3834 14.8314V12.7236H17.2834C17.3471 14.1219 17.2834 27.6251 17.2834 27.6251H22.3834Z" fill="#0B0B0B"/>
</g>
<defs>
<filter id="filter0_d_83_6" x="0" y="0" width="42" height="41" filterUnits="userSpaceOnUse" color-interpolation-filters="sRGB">
<feFlood flood-opacity="0" result="BackgroundImageFix"/>
<feColorMatrix in="SourceAlpha" type="matrix" values="0 0 0 0 0 0 0 0 0 0 0 0 0 0 0 0 0 0 127 0" result="hardAlpha"/>
<feOffset dy="4"/>
<feGaussianBlur stdDeviation="2"/>
<feComposite in2="hardAlpha" operator="out"/>
<feColorMatrix type="matrix" values="0 0 0 0 0 0 0 0 0 0 0 0 0 0 0 0 0 0 0.25 0"/>
<feBlend mode="normal" in2="BackgroundImageFix" result="effect1_dropShadow_83_6"/>
<feBlend mode="normal" in="SourceGraphic" in2="effect1_dropShadow_83_6" result="shape"/>
</filter>
<linearGradient id="paint0_linear_83_6" x1="17" y1="0" x2="17" y2="33" gradientUnits="userSpaceOnUse">
<stop stop-color="#E1F505"/>
<stop offset="1" stop-color="#303813"/>
</linearGradient>
<clipPath id="clip0_83_6">
<rect width="34" height="33" fill="white" transform="translate(4)"/>
</clipPath>
</defs>
</svg>
