<svg width="12" height="12" viewBox="0 0 12 12" fill="none" xmlns="http://www.w3.org/2000/svg">
<path fill-rule="evenodd" clip-rule="evenodd" d="M10.2431 1.48487C9.11785 0.534123 7.59165 -1.00177e-08 6.00028 0C4.40891 1.00177e-08 2.88271 0.534123 1.75744 1.48487C0.632171 2.43561 1.18567e-08 3.7251 0 5.06965C-1.18567e-08 6.41421 0.632171 7.70369 1.75744 8.65444L5.51701 11.8309C5.64519 11.9392 5.81903 12 6.00028 12C6.18154 12 6.35537 11.9392 6.48356 11.8309L10.2431 8.65444C11.3681 7.70355 12 6.41412 12 5.06965C12 3.72519 11.3681 2.43576 10.2431 1.48487ZM4.97494 5.06965C4.97494 4.83989 5.08297 4.61954 5.27526 4.45708C5.46755 4.29462 5.72834 4.20334 6.00028 4.20334H6.00712C6.27905 4.20334 6.53985 4.29462 6.73214 4.45708C6.92443 4.61954 7.03245 4.83989 7.03245 5.06965V5.07543C7.03245 5.30519 6.92443 5.52554 6.73214 5.688C6.53985 5.85047 6.27905 5.94174 6.00712 5.94174H6.00028C5.72834 5.94174 5.46755 5.85047 5.27526 5.688C5.08297 5.52554 4.97494 5.30519 4.97494 5.07543V5.06965Z" fill="#505E1F"/>
</svg>
