<svg width="20" height="31" viewBox="0 0 20 31" fill="none" xmlns="http://www.w3.org/2000/svg">
<path fill-rule="evenodd" clip-rule="evenodd" d="M16.8582 3.7765C15.0062 1.35845 12.4944 -2.54784e-08 9.87528 0C7.25619 2.54784e-08 4.74438 1.35845 2.8924 3.7765C1.04043 6.19456 1.95137e-08 9.47415 0 12.8938C-1.95137e-08 16.3134 1.04043 19.593 2.8924 22.0111L9.0799 30.0899C9.29087 30.3652 9.57697 30.5199 9.87528 30.5199C10.1736 30.5199 10.4597 30.3652 10.6707 30.0899L16.8582 22.0111C18.7096 19.5927 19.7496 16.3132 19.7496 12.8938C19.7496 9.47438 18.7096 6.19494 16.8582 3.7765ZM8.18778 12.8938C8.18778 12.3094 8.36557 11.749 8.68203 11.3358C8.9985 10.9226 9.42772 10.6905 9.87528 10.6905H9.88653C10.3341 10.6905 10.7633 10.9226 11.0798 11.3358C11.3962 11.749 11.574 12.3094 11.574 12.8938V12.9085C11.574 13.4928 11.3962 14.0533 11.0798 14.4665C10.7633 14.8797 10.3341 15.1118 9.88653 15.1118H9.87528C9.42772 15.1118 8.9985 14.8797 8.68203 14.4665C8.36557 14.0533 8.18778 13.4928 8.18778 12.9085V12.8938Z" fill="#F1C728"/>
</svg>
