<svg width="28" height="30" viewBox="0 0 28 30" fill="none" xmlns="http://www.w3.org/2000/svg">
<path d="M22.1667 15C22.1667 12.5625 21.3743 10.4948 19.7896 8.79688C18.2049 7.09896 16.275 6.25 14 6.25V3.75C15.4583 3.75 16.8243 4.04688 18.0979 4.64062C19.3715 5.23438 20.4799 6.03646 21.4229 7.04688C22.366 8.05729 23.1146 9.24479 23.6688 10.6094C24.2229 11.974 24.5 13.4375 24.5 15H22.1667ZM17.5 15C17.5 13.9583 17.1597 13.0729 16.4792 12.3438C15.7986 11.6146 14.9722 11.25 14 11.25V8.75C15.6139 8.75 16.9896 9.35938 18.1271 10.5781C19.2646 11.7969 19.8333 13.2708 19.8333 15H17.5ZM23.275 26.25C20.8444 26.25 18.4431 25.6823 16.0708 24.5469C13.6986 23.4115 11.5403 21.8021 9.59583 19.7188C7.65139 17.6354 6.14931 15.3229 5.08958 12.7812C4.02986 10.2396 3.5 7.66667 3.5 5.0625C3.5 4.6875 3.61667 4.375 3.85 4.125C4.08333 3.875 4.375 3.75 4.725 3.75H9.45C9.72222 3.75 9.96528 3.84896 10.1792 4.04688C10.3931 4.24479 10.5194 4.47917 10.5583 4.75L11.3167 9.125C11.3556 9.45833 11.3458 9.73958 11.2875 9.96875C11.2292 10.1979 11.1222 10.3958 10.9667 10.5625L8.1375 13.625C8.52639 14.3958 8.98819 15.1406 9.52292 15.8594C10.0576 16.5781 10.6458 17.2708 11.2875 17.9375C11.8903 18.5833 12.5222 19.1823 13.1833 19.7344C13.8444 20.2865 14.5444 20.7917 15.2833 21.25L18.025 18.3125C18.2 18.125 18.4285 17.9844 18.7104 17.8906C18.9924 17.7969 19.2694 17.7708 19.5417 17.8125L23.5667 18.6875C23.8389 18.7708 24.0625 18.9219 24.2375 19.1406C24.4125 19.3594 24.5 19.6042 24.5 19.875V24.9375C24.5 25.3125 24.3833 25.625 24.15 25.875C23.9167 26.125 23.625 26.25 23.275 26.25ZM7.02917 11.25L8.95417 9.1875L8.45833 6.25H5.8625C5.95972 7.10417 6.09583 7.94792 6.27083 8.78125C6.44583 9.61458 6.69861 10.4375 7.02917 11.25ZM17.4708 22.4375C18.2292 22.7917 19.0021 23.0729 19.7896 23.2812C20.5771 23.4896 21.3694 23.625 22.1667 23.6875V20.9375L19.425 20.3438L17.4708 22.4375Z" fill="url(#paint0_linear_83_4)"/>
<path d="M22.1667 15C22.1667 12.5625 21.3743 10.4948 19.7896 8.79688C18.2049 7.09896 16.275 6.25 14 6.25V3.75C15.4583 3.75 16.8243 4.04688 18.0979 4.64062C19.3715 5.23438 20.4799 6.03646 21.4229 7.04688C22.366 8.05729 23.1146 9.24479 23.6688 10.6094C24.2229 11.974 24.5 13.4375 24.5 15H22.1667ZM17.5 15C17.5 13.9583 17.1597 13.0729 16.4792 12.3438C15.7986 11.6146 14.9722 11.25 14 11.25V8.75C15.6139 8.75 16.9896 9.35938 18.1271 10.5781C19.2646 11.7969 19.8333 13.2708 19.8333 15H17.5ZM23.275 26.25C20.8444 26.25 18.4431 25.6823 16.0708 24.5469C13.6986 23.4115 11.5403 21.8021 9.59583 19.7188C7.65139 17.6354 6.14931 15.3229 5.08958 12.7812C4.02986 10.2396 3.5 7.66667 3.5 5.0625C3.5 4.6875 3.61667 4.375 3.85 4.125C4.08333 3.875 4.375 3.75 4.725 3.75H9.45C9.72222 3.75 9.96528 3.84896 10.1792 4.04688C10.3931 4.24479 10.5194 4.47917 10.5583 4.75L11.3167 9.125C11.3556 9.45833 11.3458 9.73958 11.2875 9.96875C11.2292 10.1979 11.1222 10.3958 10.9667 10.5625L8.1375 13.625C8.52639 14.3958 8.98819 15.1406 9.52292 15.8594C10.0576 16.5781 10.6458 17.2708 11.2875 17.9375C11.8903 18.5833 12.5222 19.1823 13.1833 19.7344C13.8444 20.2865 14.5444 20.7917 15.2833 21.25L18.025 18.3125C18.2 18.125 18.4285 17.9844 18.7104 17.8906C18.9924 17.7969 19.2694 17.7708 19.5417 17.8125L23.5667 18.6875C23.8389 18.7708 24.0625 18.9219 24.2375 19.1406C24.4125 19.3594 24.5 19.6042 24.5 19.875V24.9375C24.5 25.3125 24.3833 25.625 24.15 25.875C23.9167 26.125 23.625 26.25 23.275 26.25ZM7.02917 11.25L8.95417 9.1875L8.45833 6.25H5.8625C5.95972 7.10417 6.09583 7.94792 6.27083 8.78125C6.44583 9.61458 6.69861 10.4375 7.02917 11.25ZM17.4708 22.4375C18.2292 22.7917 19.0021 23.0729 19.7896 23.2812C20.5771 23.4896 21.3694 23.625 22.1667 23.6875V20.9375L19.425 20.3438L17.4708 22.4375Z" fill="url(#paint1_linear_83_4)" fill-opacity="0.2"/>
<defs>
<linearGradient id="paint0_linear_83_4" x1="14" y1="3.75" x2="14" y2="26.25" gradientUnits="userSpaceOnUse">
<stop stop-color="#E1F505"/>
<stop offset="1" stop-color="#303813"/>
</linearGradient>
<linearGradient id="paint1_linear_83_4" x1="14" y1="3.75" x2="14" y2="26.25" gradientUnits="userSpaceOnUse">
<stop stop-color="#E1F505" stop-opacity="0"/>
<stop offset="1" stop-color="#303813"/>
</linearGradient>
</defs>
</svg>
